<svg version="1.1" id="Layer_1" xmlns="http://www.w3.org/2000/svg" xmlns:xlink="http://www.w3.org/1999/xlink" x="0px" y="0px" width="32px" height="32px" viewBox="0 0 32 32" enable-background="new 0 0 32 32" xml:space="preserve">
  <g id="icon">
    <path d="M9.067,11.1H2.933c-0.515,0,-0.933,0.418,-0.933,0.933v17.033c0,0.515,0.418,0.933,0.933,0.933h6.133c0.515,0,0.933,-0.418,0.933,-0.933V12.033C10,11.518,9.582,11.1,9.067,11.1zM9,28H3v-1h6V28zM9,26H3v-1h6V26zM9,16H3v-1h6V16zM9,14H3v-1h6V14z" fill="#217346"/>
    <path d="M9,14H3v-1h6V14zM9,15H3v1h6V15zM9,27H3v1h6V27zM9,25H3v1h6V25z" fill="#FFFFFF"/>
    <path d="M19.067,2.1h-6.133c-0.515,0,-0.933,0.418,-0.933,0.933v26.033c0,0.515,0.418,0.933,0.933,0.933h6.133c0.515,0,0.933,-0.418,0.933,-0.933V3.033C20,2.518,19.582,2.1,19.067,2.1zM19,28h-6v-1h6V28zM19,26h-6v-1h6V26zM19,7h-6V6h6V7zM19,5h-6V4h6V5z" fill="#217346"/>
    <path d="M19,5h-6V4h6V5zM19,6h-6v1h6V6zM19,27h-6v1h6V27zM19,25h-6v1h6V25z" fill="#FFFFFF"/>
    <path d="M29.067,7.1h-6.133c-0.515,0,-0.933,0.418,-0.933,0.933v21.033c0,0.515,0.418,0.933,0.933,0.933h6.133c0.515,0,0.933,-0.418,0.933,-0.933V8.033C30,7.518,29.582,7.1,29.067,7.1zM29,28h-6v-1h6V28zM29,26h-6v-1h6V26zM29,12h-6v-1h6V12zM29,10h-6V9h6V10z" fill="#217346"/>
    <path d="M29,10h-6V9h6V10zM29,11h-6v1h6V11zM29,27h-6v1h6V27zM29,25h-6v1h6V25z" fill="#FFFFFF"/>
  </g>
</svg>