<svg version="1.1" id="Layer_1" xmlns="http://www.w3.org/2000/svg" xmlns:xlink="http://www.w3.org/1999/xlink" x="0px" y="0px" width="16px" height="16px" viewBox="0 0 16 16" enable-background="new 0 0 16 16" xml:space="preserve">
  <g id="icon">
    <path d="M4.067,6H0.933C0.418,6,0,6.418,0,6.933v8.133c0,0.515,0.418,0.933,0.933,0.933h3.133c0.515,0,0.933,-0.418,0.933,-0.933V6.933C5,6.418,4.582,6,4.067,6zM4,14H1v-1h3V14zM4,9H1V8h3V9zM9.067,0H6.933C6.418,0,6,0.418,6,0.933v14.133c0,0.515,0.418,0.933,0.933,0.933h2.133c0.515,0,0.933,-0.418,0.933,-0.933V0.933C10,0.418,9.582,0,9.067,0zM9,14H7v-1h2V14zM9,3H7V2h2V3zM15.067,3h-3.133c-0.515,0,-0.933,0.418,-0.933,0.933v11.133c0,0.515,0.418,0.933,0.933,0.933h3.133c0.515,0,0.933,-0.418,0.933,-0.933V3.933C16,3.418,15.582,3,15.067,3zM15,14h-3v-1h3V14zM15,6h-3V5h3V6z" fill="#217346"/>
    <path d="M4,9H1V8h3V9zM4,13H1v1h3V13zM9,3H7V2h2V3zM9,13H7v1h2V13zM15,6h-3V5h3V6zM15,13h-3v1h3V13z" fill="#FFFFFF"/>
  </g>
</svg>
